<mxfile host="65bd71144e">
    <diagram id="m623BYaAGIRXmKG21ZIO" name="Page-1">
        <mxGraphModel dx="564" dy="518" grid="1" gridSize="10" guides="1" tooltips="1" connect="1" arrows="1" fold="1" page="1" pageScale="1" pageWidth="827" pageHeight="1169" math="0" shadow="0">
            <root>
                <mxCell id="0"/>
                <mxCell id="1" parent="0"/>
                <mxCell id="3" value="" style="shape=cylinder3;whiteSpace=wrap;html=1;boundedLbl=1;backgroundOutline=1;size=15;sketch=1;" vertex="1" parent="1">
                    <mxGeometry x="250" y="645" width="60" height="80" as="geometry"/>
                </mxCell>
                <mxCell id="2" value="You&lt;br&gt;after&lt;br&gt;this" style="shape=umlActor;verticalLabelPosition=bottom;verticalAlign=top;html=1;outlineConnect=0;sketch=1;" vertex="1" parent="1">
                    <mxGeometry x="265" y="600" width="30" height="60" as="geometry"/>
                </mxCell>
                <mxCell id="4" value="I am the king of the world!!" style="shape=callout;whiteSpace=wrap;html=1;perimeter=calloutPerimeter;fillColor=#f9f7ed;strokeColor=#36393d;sketch=1;" vertex="1" parent="1">
                    <mxGeometry x="240" y="530" width="120" height="80" as="geometry"/>
                </mxCell>
            </root>
        </mxGraphModel>
    </diagram>
</mxfile>
